<?xml version="1.0" encoding="utf-8"?>
<!-- Generator: Adobe Illustrator 23.0.5, SVG Export Plug-In . SVG Version: 6.00 Build 0)  -->
<svg version="1.1" id="Capa_1" xmlns="http://www.w3.org/2000/svg" xmlns:xlink="http://www.w3.org/1999/xlink" x="0px" y="0px"
	 viewBox="0 0 480.3 185.4" style="enable-background:new 0 0 480.3 185.4;" xml:space="preserve">
<style type="text/css">
	.st0{fill-rule:evenodd;clip-rule:evenodd;fill:#009FE3;}
</style>
<polygon class="st0" points="55.3,185.4 0,185.4 263.4,4.2 265.5,2.9 267.5,1.9 269.7,1 271.8,0.4 274,-0.1 276.3,-0.4 278.5,-0.5 
	280.8,-0.5 283,-0.3 285.3,0 287.5,0.6 289.7,1.2 291.9,2 293.9,2.9 296,4 297.9,5.1 299.7,6.4 301.4,7.8 303.1,9.3 304.5,11 
	305.9,12.7 307.1,14.5 308.1,16.3 309,18.3 309.7,20.4 310.2,22.4 310.5,24.5 310.6,26.8 310.5,29.1 310.1,31.4 309.4,33.8 
	308.6,36.1 245.1,185.7 168,185.7 214.6,76 "/>
<polygon class="st0" points="480.3,185.9 480.3,185.9 444.8,185.9 387.6,76 340.9,185.8 263.9,185.8 333.6,22.2 335,19.2 
	336.5,16.4 338.2,13.8 339.8,11.4 341.6,9.4 343.4,7.6 345.3,5.9 347.3,4.6 349.4,3.3 351.3,2.4 353.5,1.5 355.5,0.9 357.7,0.4 
	359.9,0.1 362.1,0 364.1,0 366.2,0.1 368.3,0.4 370.5,0.8 372.4,1.3 374.5,2 376.4,2.7 378.2,3.6 380,4.5 381.7,5.5 383.3,6.6 
	384.7,7.5 384.8,7.6 "/>
</svg>